# xmcd
#
# Track frame offsets: 
#        150
#        29729
#        48179
#        80328
#        109210
#        129247
#        148382
#        173036
#        192848
#        219128
#        233502
#        257851
#        283098
#        312573
#
# Disc length: 4586 seconds
#
# Revision: 0
# Processed by: cddbd v1.4PL0 Copyright (c) Steve Scherf et al.
# Submitted via: ExactAudioCopy v0.95a2
#
DISCID=c911e80e
DTITLE=Mattew Lien - In So Many Words
DYEAR=2001
DGENRE=Blues
TTITLE0=Blue Lights
TTITLE1=People That You Hate
TTITLE2=Tears On Min Chun Road
TTITLE3=Cause And Effect
TTITLE4=This Water
TTITLE5=Airstrip In Paradise
TTITLE6=Behind The Lines
TTITLE7=I Stand Amazed
TTITLE8=The Child Slips Away
TTITLE9=Life Of Ten(Intro)
TTITLE10=Life Of Ten
TTITLE11=Bressernon
TTITLE12=Bedtime Stories
TTITLE13=All That I Could Ask For
EXTD=
EXTT0=
EXTT1=
EXTT2=
EXTT3=
EXTT4=
EXTT5=
EXTT6=
EXTT7=
EXTT8=
EXTT9=
EXTT10=
EXTT11=
EXTT12=
EXTT13=
PLAYORDER=
